<svg width="24" height="24" viewBox="0 0 24 24" fill="none" xmlns="http://www.w3.org/2000/svg">
<path d="M19.0701 4.93002C17.4293 3.27852 15.2638 2.25124 12.9467 2.02526C10.6297 1.79929 8.30647 2.3888 6.3775 3.69215C4.44854 4.99551 3.03475 6.93103 2.37988 9.16503C1.72501 11.399 1.87009 13.7915 2.79012 15.93C2.88601 16.1288 2.91747 16.3525 2.88012 16.57L2.00012 20.8C1.96621 20.9622 1.97314 21.1303 2.02027 21.2891C2.06739 21.4479 2.15325 21.5926 2.27012 21.71C2.36592 21.8051 2.47999 21.8799 2.60545 21.9297C2.73091 21.9795 2.86516 22.0035 3.00012 22H3.20012L7.48012 21.14C7.69765 21.1139 7.91824 21.1449 8.12012 21.23C10.2586 22.15 12.6511 22.2951 14.8851 21.6403C17.1191 20.9854 19.0546 19.5716 20.358 17.6426C21.6613 15.7137 22.2508 13.3904 22.0249 11.0734C21.7989 8.75638 20.7716 6.59081 19.1201 4.95002L19.0701 4.93002ZM8.00012 13C7.80234 13 7.609 12.9414 7.44455 12.8315C7.2801 12.7216 7.15193 12.5654 7.07624 12.3827C7.00055 12.2 6.98075 11.9989 7.01933 11.8049C7.05792 11.611 7.15316 11.4328 7.29301 11.2929C7.43286 11.1531 7.61105 11.0578 7.80503 11.0192C7.99901 10.9807 8.20008 11.0005 8.3828 11.0761C8.56553 11.1518 8.72171 11.28 8.83159 11.4445C8.94147 11.6089 9.00012 11.8022 9.00012 12C9.00012 12.2652 8.89476 12.5196 8.70722 12.7071C8.51969 12.8947 8.26533 13 8.00012 13ZM12.0001 13C11.8023 13 11.609 12.9414 11.4445 12.8315C11.2801 12.7216 11.1519 12.5654 11.0762 12.3827C11.0006 12.2 10.9807 11.9989 11.0193 11.8049C11.0579 11.611 11.1532 11.4328 11.293 11.2929C11.4329 11.1531 11.611 11.0578 11.805 11.0192C11.999 10.9807 12.2001 11.0005 12.3828 11.0761C12.5655 11.1518 12.7217 11.28 12.8316 11.4445C12.9415 11.6089 13.0001 11.8022 13.0001 12C13.0001 12.2652 12.8948 12.5196 12.7072 12.7071C12.5197 12.8947 12.2653 13 12.0001 13ZM16.0001 13C15.8023 13 15.609 12.9414 15.4445 12.8315C15.2801 12.7216 15.1519 12.5654 15.0762 12.3827C15.0006 12.2 14.9807 11.9989 15.0193 11.8049C15.0579 11.611 15.1532 11.4328 15.293 11.2929C15.4329 11.1531 15.611 11.0578 15.805 11.0192C15.999 10.9807 16.2001 11.0005 16.3828 11.0761C16.5655 11.1518 16.7217 11.28 16.8316 11.4445C16.9415 11.6089 17.0001 11.8022 17.0001 12C17.0001 12.2652 16.8948 12.5196 16.7072 12.7071C16.5197 12.8947 16.2653 13 16.0001 13Z" fill="black"/>
</svg>
