<svg width="24" height="24" viewBox="0 0 24 24" fill="none" xmlns="http://www.w3.org/2000/svg">
<path d="M19.54 5.08002C18.5374 4.08445 17.346 3.29917 16.0358 2.77026C14.7255 2.24136 13.3229 1.97949 11.91 2.00002C9.25788 1.99339 6.7117 3.0406 4.83165 4.91128C2.9516 6.78195 1.89167 9.32286 1.88504 11.975C1.87841 14.6272 2.92562 17.1734 4.7963 19.0534C6.66697 20.9335 9.20788 21.9934 11.86 22C12.4315 22.0097 12.9901 21.8294 13.448 21.4873C13.9059 21.1453 14.2373 20.6608 14.39 20.11C14.4874 19.7123 14.4864 19.2968 14.3871 18.8995C14.2878 18.5022 14.0932 18.1351 13.82 17.83C13.7569 17.7582 13.7157 17.6697 13.7013 17.5751C13.6869 17.4805 13.7 17.3838 13.739 17.2964C13.7779 17.209 13.8411 17.1347 13.9211 17.0821C14.001 17.0296 14.0944 17.0011 14.19 17H15.84C17.393 17.0073 18.8912 16.4268 20.0338 15.375C21.1764 14.3233 21.8789 12.8783 22 11.33C22.0372 10.1756 21.8382 9.02581 21.4152 7.95108C20.9922 6.87635 20.3541 5.89935 19.54 5.08002ZM15.88 15H14.23C13.7482 14.9973 13.2759 15.1344 12.8704 15.3948C12.4649 15.6552 12.1437 16.0277 11.9458 16.467C11.7478 16.9064 11.6816 17.3937 11.7551 17.87C11.8286 18.3462 12.0388 18.7909 12.36 19.15C12.4226 19.2131 12.4668 19.2921 12.4879 19.3784C12.5091 19.4647 12.5064 19.5551 12.48 19.64C12.43 19.85 12.2 19.98 11.89 20C10.7544 19.9855 9.6348 19.7293 8.60583 19.2484C7.57685 18.7676 6.66205 18.0732 5.92228 17.2114C5.18251 16.3496 4.63472 15.3401 4.31535 14.2502C3.99598 13.1602 3.91236 12.0148 4.07004 10.89C4.35521 8.99997 5.2996 7.27165 6.73618 6.01076C8.17276 4.74986 10.009 4.03763 11.92 4.00002H12C13.1309 3.98522 14.2532 4.19703 15.3009 4.62296C16.3486 5.0489 17.3003 5.68034 18.1 6.48002C18.724 7.10442 19.2143 7.84938 19.541 8.66947C19.8676 9.48955 20.0238 10.3676 20 11.25C19.8965 12.2731 19.4186 13.2218 18.6581 13.914C17.8977 14.6061 16.9083 14.9929 15.88 15Z" fill="black"/>
<path d="M12 8C12.8284 8 13.5 7.32843 13.5 6.5C13.5 5.67157 12.8284 5 12 5C11.1716 5 10.5 5.67157 10.5 6.5C10.5 7.32843 11.1716 8 12 8Z" fill="black"/>
<path d="M15.2501 7.20004C14.9933 7.3484 14.7862 7.56957 14.6551 7.8356C14.5239 8.10162 14.4745 8.40056 14.5132 8.69463C14.552 8.98869 14.677 9.26468 14.8725 9.48772C15.068 9.71075 15.3253 9.87081 15.6117 9.94767C15.8982 10.0245 16.201 10.0147 16.4819 9.91952C16.7628 9.82431 17.0092 9.64796 17.1899 9.41276C17.3706 9.17755 17.4775 8.89406 17.4971 8.59811C17.5168 8.30216 17.4482 8.00703 17.3001 7.75004C17.2017 7.57924 17.0706 7.42951 16.9143 7.30942C16.758 7.18932 16.5795 7.10122 16.3891 7.05014C16.1987 6.99906 16.0001 6.986 15.8047 7.01173C15.6093 7.03745 15.4208 7.10144 15.2501 7.20004ZM8.75012 7.20004C8.49312 7.05196 8.198 6.9834 7.90205 7.00302C7.6061 7.02264 7.3226 7.12955 7.0874 7.31025C6.8522 7.49095 6.67585 7.73732 6.58064 8.01823C6.48543 8.29913 6.47563 8.60196 6.55249 8.88843C6.62935 9.1749 6.78941 9.43215 7.01244 9.62767C7.23547 9.8232 7.51146 9.94821 7.80553 9.98691C8.0996 10.0256 8.39853 9.97627 8.66456 9.84511C8.93059 9.71395 9.15176 9.50687 9.30012 9.25004C9.39872 9.07935 9.46271 8.8909 9.48843 8.69546C9.51415 8.50002 9.5011 8.30143 9.45002 8.11104C9.39894 7.92065 9.31083 7.7422 9.19074 7.58588C9.07064 7.42956 8.92092 7.29845 8.75012 7.20004ZM6.16012 11.26C5.91409 11.4262 5.72288 11.6616 5.61071 11.9364C5.49854 12.2113 5.47045 12.5132 5.53 12.8041C5.58954 13.0949 5.73405 13.3615 5.94522 13.5702C6.15639 13.7788 6.42472 13.9201 6.71624 13.9762C7.00776 14.0323 7.30937 14.0006 7.58286 13.8851C7.85636 13.7697 8.08945 13.5756 8.25262 13.3276C8.41578 13.0796 8.5017 12.7888 8.49947 12.4919C8.49725 12.1951 8.40699 11.9056 8.24012 11.66C8.13049 11.4964 7.98951 11.3561 7.82532 11.2473C7.66114 11.1385 7.477 11.0633 7.28357 11.0261C7.09014 10.9889 6.89126 10.9904 6.69842 11.0306C6.50558 11.0707 6.32262 11.1487 6.16012 11.26Z" fill="black"/>
</svg>
