<svg width="24" height="24" viewBox="0 0 24 24" fill="none" xmlns="http://www.w3.org/2000/svg">
<path d="M15.8299 6H4.16992C3.56053 6.03612 2.99021 6.31198 2.58359 6.76732C2.17698 7.22265 1.96714 7.82042 1.99992 8.43V15.57C1.96714 16.1796 2.17698 16.7774 2.58359 17.2327C2.99021 17.688 3.56053 17.9639 4.16992 18H15.8299C16.4393 17.9639 17.0096 17.688 17.4162 17.2327C17.8229 16.7774 18.0327 16.1796 17.9999 15.57V8.43C18.0327 7.82042 17.8229 7.22265 17.4162 6.76732C17.0096 6.31198 16.4393 6.03612 15.8299 6ZM20.9999 9C20.7347 9 20.4803 9.10536 20.2928 9.29289C20.1053 9.48043 19.9999 9.73478 19.9999 10V14C19.9999 14.2652 20.1053 14.5196 20.2928 14.7071C20.4803 14.8946 20.7347 15 20.9999 15C21.2651 15 21.5195 14.8946 21.707 14.7071C21.8946 14.5196 21.9999 14.2652 21.9999 14V10C21.9999 9.73478 21.8946 9.48043 21.707 9.29289C21.5195 9.10536 21.2651 9 20.9999 9Z" fill="black"/>
</svg>
