<svg width="24" height="24" viewBox="0 0 24 24" fill="none" xmlns="http://www.w3.org/2000/svg">
<path d="M18 3H6C5.20435 3 4.44129 3.31607 3.87868 3.87868C3.31607 4.44129 3 5.20435 3 6V18C3 18.7956 3.31607 19.5587 3.87868 20.1213C4.44129 20.6839 5.20435 21 6 21H18C18.7956 21 19.5587 20.6839 20.1213 20.1213C20.6839 19.5587 21 18.7956 21 18V6C21 5.20435 20.6839 4.44129 20.1213 3.87868C19.5587 3.31607 18.7956 3 18 3ZM19 18C19 18.2652 18.8946 18.5196 18.7071 18.7071C18.5196 18.8946 18.2652 19 18 19H6C5.73478 19 5.48043 18.8946 5.29289 18.7071C5.10536 18.5196 5 18.2652 5 18V6C5 5.73478 5.10536 5.48043 5.29289 5.29289C5.48043 5.10536 5.73478 5 6 5H18C18.2652 5 18.5196 5.10536 18.7071 5.29289C18.8946 5.48043 19 5.73478 19 6V18Z" fill="black"/>
<path d="M14.6999 8.39005L10.9199 13.3901L9.28994 11.2801C9.12684 11.0705 8.88718 10.9344 8.62369 10.9016C8.3602 10.8688 8.09447 10.9419 7.88495 11.1051C7.67542 11.2682 7.53928 11.5078 7.50646 11.7713C7.47364 12.0348 7.54684 12.3005 7.70994 12.5101L10.1399 15.6201C10.2341 15.7392 10.3542 15.8354 10.4911 15.9012C10.628 15.9671 10.7781 16.0009 10.9299 16.0001C11.0827 15.9997 11.2333 15.9643 11.3702 15.8967C11.5071 15.8291 11.6268 15.7311 11.7199 15.6101L16.2899 9.61005C16.4517 9.39788 16.5226 9.13013 16.487 8.8657C16.4513 8.60128 16.3121 8.36184 16.0999 8.20005C15.8878 8.03827 15.62 7.9674 15.3556 8.00303C15.0912 8.03867 14.8517 8.17788 14.6899 8.39005H14.6999Z" fill="black"/>
</svg>
