<svg width="21" height="24" viewBox="0 0 21 24" fill="none" xmlns="http://www.w3.org/2000/svg">
<path d="M20.0353 18.1421C19.6849 18.9529 19.2701 19.6993 18.7895 20.3855C18.1344 21.321 17.598 21.9686 17.1847 22.3282C16.5439 22.9184 15.8573 23.2207 15.1221 23.2379C14.5943 23.2379 13.9578 23.0874 13.2169 22.7823C12.4735 22.4786 11.7904 22.3282 11.1658 22.3282C10.5107 22.3282 9.80808 22.4786 9.05657 22.7823C8.30392 23.0874 7.6976 23.2465 7.23402 23.2622C6.529 23.2923 5.82627 22.9814 5.12483 22.3282C4.67713 21.9371 4.11715 21.2666 3.44632 20.3168C2.72657 19.3025 2.13483 18.1263 1.67126 16.7854C1.17478 15.337 0.925903 13.9345 0.925903 12.5766C0.925903 11.0212 1.26146 9.67973 1.93358 8.55556C2.46181 7.65258 3.16454 6.94029 4.04406 6.41738C4.92358 5.89448 5.87391 5.62801 6.89732 5.61096C7.4573 5.61096 8.19164 5.78445 9.1042 6.12541C10.0142 6.46752 10.5985 6.64101 10.8547 6.64101C11.0462 6.64101 11.6953 6.43815 12.7956 6.03373C13.8362 5.65867 14.7145 5.50337 15.4339 5.56454C17.3835 5.72213 18.8482 6.49188 19.8222 7.87865C18.0786 8.93678 17.2161 10.4188 17.2333 12.32C17.249 13.8009 17.7854 15.0333 18.8396 16.0118C19.3173 16.4659 19.8508 16.8169 20.4444 17.0662C20.3157 17.4401 20.1798 17.7982 20.0353 18.1421ZM15.5641 0.519444C15.5641 1.68016 15.1407 2.76392 14.2968 3.76704C13.2784 4.95955 12.0466 5.64864 10.7108 5.5399C10.6937 5.40065 10.6839 5.2541 10.6839 5.10009C10.6839 3.9858 11.1682 2.79329 12.0283 1.81825C12.4577 1.32457 13.0038 0.914086 13.666 0.586633C14.3268 0.264065 14.9519 0.085678 15.5398 0.05513C15.5569 0.2103 15.5641 0.36548 15.5641 0.519429V0.519444Z" fill="black"/>
</svg>
