<svg width="24" height="24" viewBox="0 0 24 24" fill="none" xmlns="http://www.w3.org/2000/svg">
<path d="M18.0001 15C17.7664 15.0005 17.54 14.9191 17.3601 14.77L12.0001 10.29L6.63006 14.61C6.52778 14.6931 6.41008 14.7551 6.28374 14.7926C6.1574 14.83 6.02491 14.8421 5.89388 14.8282C5.76285 14.8142 5.63587 14.7745 5.52024 14.7113C5.4046 14.6482 5.30259 14.5628 5.22006 14.46C5.137 14.3578 5.07497 14.2401 5.03754 14.1137C5.0001 13.9874 4.98801 13.8549 5.00195 13.7239C5.01589 13.5928 5.05559 13.4658 5.11876 13.3502C5.18193 13.2346 5.26734 13.1326 5.37006 13.05L11.3701 8.22004C11.549 8.07296 11.7734 7.99255 12.0051 7.99255C12.2367 7.99255 12.4611 8.07296 12.6401 8.22004L18.6401 13.22C18.7413 13.304 18.825 13.4071 18.8864 13.5234C18.9477 13.6398 18.9855 13.7671 18.9976 13.8981C19.0097 14.029 18.9958 14.1611 18.9568 14.2867C18.9177 14.4123 18.8543 14.529 18.7701 14.63C18.677 14.7448 18.5597 14.8374 18.4266 14.9014C18.2934 14.9654 18.1478 14.9991 18.0001 15Z" fill="black"/>
</svg>
