<svg width="24" height="24" viewBox="0 0 24 24" fill="none" xmlns="http://www.w3.org/2000/svg">
<path d="M13.54 17.9999C13.0666 18.0005 12.6076 17.8381 12.24 17.5399L7.13996 13.3299C6.93996 13.1707 6.77845 12.9685 6.66744 12.7382C6.55643 12.5079 6.49878 12.2556 6.49878 11.9999C6.49878 11.7443 6.55643 11.492 6.66744 11.2617C6.77845 11.0314 6.93996 10.8292 7.13996 10.6699L12.24 6.45995C12.547 6.21394 12.917 6.05913 13.3077 6.01316C13.6984 5.9672 14.0942 6.03191 14.45 6.19995C14.7591 6.33623 15.0225 6.55862 15.2087 6.84057C15.3949 7.12251 15.496 7.45209 15.5 7.78995V16.2099C15.496 16.5478 15.3949 16.8774 15.2087 17.1593C15.0225 17.4413 14.7591 17.6637 14.45 17.7999C14.1641 17.9299 13.854 17.9981 13.54 17.9999Z" fill="black"/>
</svg>
