<svg width="24" height="24" viewBox="0 0 24 24" fill="none" xmlns="http://www.w3.org/2000/svg">
<g clip-path="url(#clip0_42_16357)">
<path d="M5.54664 14.2879L4.73971 17.2823L1.79041 17.3443C0.909006 15.7192 0.409058 13.86 0.409058 11.8842C0.409058 9.97358 0.876497 8.17186 1.70507 6.58542H1.7057L4.3314 7.06393L5.48162 9.6583C5.24088 10.356 5.10967 11.1049 5.10967 11.8842C5.10976 12.7299 5.26388 13.5403 5.54664 14.2879Z" fill="#FBBB00"/>
<path d="M23.3883 9.73141C23.5214 10.4284 23.5908 11.1482 23.5908 11.8838C23.5908 12.7087 23.5036 13.5133 23.3374 14.2895C22.7731 16.9306 21.2988 19.2369 19.2564 20.8689L19.2558 20.8683L15.9485 20.7005L15.4805 17.796C16.8357 17.006 17.8948 15.7696 18.4527 14.2895H12.2548V9.73141H18.5431H23.3883Z" fill="#518EF8"/>
<path d="M19.2556 20.8686L19.2563 20.8692C17.2699 22.4563 14.7466 23.4059 11.9998 23.4059C7.58574 23.4059 3.74802 20.9534 1.79028 17.3443L5.54651 14.2879C6.52535 16.8847 9.04543 18.7333 11.9998 18.7333C13.2697 18.7333 14.4594 18.392 15.4803 17.7963L19.2556 20.8686Z" fill="#28B446"/>
<path d="M19.3984 3.01484L15.6435 6.07062C14.5869 5.41415 13.338 5.03493 12 5.03493C8.97869 5.03493 6.41148 6.96828 5.48168 9.6582L1.70571 6.58532H1.70508C3.63415 2.88824 7.52027 0.36232 12 0.36232C14.8124 0.36232 17.391 1.35814 19.3984 3.01484Z" fill="#F14336"/>
</g>
<defs>
<clipPath id="clip0_42_16357">
<rect width="23.1818" height="23.0435" fill="white" transform="translate(0.409058 0.36232)"/>
</clipPath>
</defs>
</svg>
