<svg width="433" height="495" viewBox="0 0 433 495" fill="none" xmlns="http://www.w3.org/2000/svg">
<path d="M250.329 197.696C250.329 197.696 220.784 166.931 220.258 169.027C219.244 173.093 217.204 180.087 217.204 180.087L184.586 168.02C184.586 168.02 195.926 112.958 201.796 106.508" stroke="black" stroke-width="3" stroke-miterlimit="10" stroke-linecap="round" stroke-linejoin="round"/>
<path d="M92.9643 219.997C92.3886 213.623 113.498 217.264 113.498 217.264C113.498 217.264 93.8155 229.45 92.9643 219.997Z" fill="white" stroke="black" stroke-width="3" stroke-miterlimit="10" stroke-linecap="round" stroke-linejoin="round"/>
<path d="M184.58 168.013L178.86 194.393C178.86 194.393 108.779 216.213 102.208 222.074C95.6367 227.942 83.5832 235.98 86.8375 240.247C88.9341 242.993 111.827 225.828 111.827 225.828C111.827 225.828 88.0517 242.011 91.4124 246.709C94.5666 251.125 113.942 232.871 113.942 232.871C113.942 232.871 94.8795 249.33 97.9836 253.165C100.956 256.843 116.758 239.208 116.758 239.208C116.758 239.208 109.486 248.123 110.888 250.468C112.29 252.814 128.724 236.156 132.949 234.047C137.173 231.939 208.574 212.234 208.574 212.234L217.198 180.099L184.58 168.013Z" fill="white" stroke="black" stroke-width="3" stroke-miterlimit="10" stroke-linecap="round" stroke-linejoin="round"/>
<path d="M224.476 151.23L220.258 169.027" stroke="black" stroke-width="3" stroke-miterlimit="10" stroke-linecap="round" stroke-linejoin="round"/>
<path d="M231.517 285.694L219.326 367.723L281.658 411.632L326.105 377.207L291.371 348.325C291.371 348.325 329.328 277.924 327.45 239.765C293.048 265.325 231.517 285.694 231.517 285.694Z" fill="black" stroke="black" stroke-width="3" stroke-miterlimit="10" stroke-linecap="round" stroke-linejoin="round"/>
<path d="M268.754 278.218L252.983 358.171L303.969 393.741" stroke="white" stroke-miterlimit="10"/>
<path d="M329.572 374.555L271.407 419.595L300.49 433.045L355.588 398.951L329.572 374.555Z" stroke="black" stroke-width="3" stroke-miterlimit="10" stroke-linecap="round" stroke-linejoin="round"/>
<path d="M351.075 401.741L373.155 420.296L313.501 466.549L314.439 437.893L304.77 430.398L351.075 401.741Z" fill="white" stroke="black" stroke-width="3" stroke-miterlimit="10" stroke-linecap="round" stroke-linejoin="round"/>
<path d="M327.45 239.771C283.961 273.552 178.009 302.772 178.009 302.772L155.835 418.319L98.6846 404.081L105.256 283.536C118.868 266.176 233.989 196.701 276.852 189.195L327.45 239.771Z" fill="black" stroke="black" stroke-width="3" stroke-miterlimit="10" stroke-linecap="round" stroke-linejoin="round"/>
<path d="M431 457.598C431 457.598 422.814 467.488 418.915 467.45C321.668 466.55 108.529 465.298 11.1497 463.853C7.9267 463.803 2.00002 454.783 2.00002 454.783" stroke="black" stroke-width="3" stroke-miterlimit="10" stroke-linecap="round" stroke-linejoin="round"/>
<path d="M302.548 495C294.689 495 288.317 488.631 288.317 480.775C288.317 472.918 294.689 466.549 302.548 466.549C310.408 466.549 316.78 472.918 316.78 480.775C316.78 488.631 310.408 495 302.548 495Z" stroke="black" stroke-width="3" stroke-miterlimit="10" stroke-linecap="round" stroke-linejoin="round"/>
<path d="M80.1349 493.749C72.2752 493.749 65.9037 487.38 65.9037 479.524C65.9037 471.667 72.2752 465.298 80.1349 465.298C87.9947 465.298 94.3665 471.667 94.3665 479.524C94.3665 487.38 87.9947 493.749 80.1349 493.749Z" stroke="black" stroke-width="3" stroke-miterlimit="10" stroke-linecap="round" stroke-linejoin="round"/>
<path d="M162.206 419.908L89.2972 401.741L90.8617 428.353L156.574 438.987L162.206 419.908Z" stroke="black" stroke-width="3" stroke-miterlimit="10" stroke-linecap="round" stroke-linejoin="round"/>
<path d="M97.9459 429.497V440.082L64.4203 464.516L147.812 465.061L152.643 438.349L97.9459 429.497Z" fill="white" stroke="black" stroke-width="3" stroke-miterlimit="10" stroke-linecap="round" stroke-linejoin="round"/>
<path d="M190.275 99.1516C184.603 99.1516 180.005 93.847 180.005 87.3035C180.005 80.7599 184.603 75.4554 190.275 75.4554C195.947 75.4554 200.544 80.7599 200.544 87.3035C200.544 93.847 195.947 99.1516 190.275 99.1516Z" fill="white" stroke="black" stroke-width="3" stroke-miterlimit="10" stroke-linecap="round" stroke-linejoin="round"/>
<path d="M286.014 146.7C286.014 146.7 239.052 117.918 192.089 122.848" stroke="black" stroke-width="3" stroke-miterlimit="10" stroke-linecap="round" stroke-linejoin="round"/>
<path d="M281.076 151.63C281.076 151.63 243.151 122.091 191.151 129.022" stroke="black" stroke-width="3" stroke-miterlimit="10" stroke-linecap="round" stroke-linejoin="round"/>
<path d="M263.121 175.47C263.121 175.47 239.052 177.816 223.694 173.906" stroke="black" stroke-width="3" stroke-miterlimit="10" stroke-linecap="round" stroke-linejoin="round"/>
<path d="M268.754 181.1C268.754 181.1 244.384 183.877 226.98 178.911" stroke="black" stroke-width="3" stroke-miterlimit="10" stroke-linecap="round" stroke-linejoin="round"/>
<path d="M291.881 111.982L317.73 94.357L340.829 128.206L314.979 145.831L291.881 111.982Z" fill="#FFCD1E" stroke="black" stroke-width="3" stroke-miterlimit="10" stroke-linecap="round" stroke-linejoin="round"/>
<path d="M281.997 118.715L291.882 111.975L314.981 145.824L305.096 152.564L281.997 118.715Z" fill="black" stroke="black" stroke-width="3" stroke-miterlimit="10" stroke-linecap="round" stroke-linejoin="round"/>
<path d="M305.891 110.921L321.69 100.148L340.832 128.199L325.033 138.971L305.891 110.921Z" fill="white" stroke="black" stroke-width="3" stroke-miterlimit="10" stroke-linecap="round" stroke-linejoin="round"/>
<path d="M201.79 106.502C198.799 105.657 200.538 103.293 196.395 96.418C192.171 89.4054 175.18 83.7879 175.192 78.6646C175.224 67.4608 200.758 49.8888 226.041 65.5278C229.64 67.7548 240.604 67.1855 241.668 71.9961C243.37 79.6779 237.106 76.9567 235.097 82.3741C232.068 90.5439 223.306 94.4537 218.531 96.6432C213.024 99.1767 211.422 109.217 201.79 106.502Z" fill="black" stroke="black" stroke-width="3" stroke-miterlimit="10" stroke-linecap="round" stroke-linejoin="round"/>
<path d="M310.14 39.567H352.146V73.5787H310.14V39.567Z" stroke="black" stroke-width="3" stroke-miterlimit="10" stroke-linecap="round" stroke-linejoin="round"/>
<path d="M352.146 39.567L331.024 54.7368L310.14 39.567H352.146Z" stroke="black" stroke-width="3" stroke-miterlimit="10" stroke-linecap="round" stroke-linejoin="round"/>
<path d="M382.655 19.3926H431V61.1488H382.655V19.3926Z" fill="#FFCD1E" stroke="black" stroke-width="3" stroke-miterlimit="10" stroke-linecap="round" stroke-linejoin="round"/>
<path d="M406.83 27.1371H431V41.5625H406.83V27.1371Z" fill="white" stroke="black" stroke-width="3" stroke-miterlimit="10" stroke-linecap="round" stroke-linejoin="round"/>
<path d="M430.456 48.7189H414.81" stroke="black" stroke-width="3" stroke-miterlimit="10" stroke-linecap="round" stroke-linejoin="round"/>
<path d="M430.456 53.6421H421.926" stroke="black" stroke-width="3" stroke-miterlimit="10" stroke-linecap="round" stroke-linejoin="round"/>
<path d="M382.655 19.3926H396.579V60.5232H382.655V19.3926Z" fill="black" stroke="black" stroke-width="3" stroke-miterlimit="10" stroke-linecap="round" stroke-linejoin="round"/>
<path d="M45.2118 151.973L95.1221 119.368L123.308 162.475L73.3975 195.081L45.2118 151.973Z" fill="#FFCD1E" stroke="black" stroke-width="3" stroke-miterlimit="10" stroke-linecap="round" stroke-linejoin="round"/>
<path d="M75.3909 143.668L100.348 127.363L110.086 142.256L85.1284 158.561L75.3909 143.668Z" fill="white" stroke="black" stroke-width="3" stroke-miterlimit="10" stroke-linecap="round" stroke-linejoin="round"/>
<path d="M114.893 149.515L98.1776 160.438" stroke="black" stroke-width="3" stroke-miterlimit="10" stroke-linecap="round" stroke-linejoin="round"/>
<path d="M118.217 154.601L108.848 160.725" stroke="black" stroke-width="3" stroke-miterlimit="10" stroke-linecap="round" stroke-linejoin="round"/>
<path d="M59.4387 142.487L87.6243 185.594L73.2489 194.986L45.0634 151.878L59.4387 142.487Z" fill="black" stroke="black" stroke-width="3" stroke-miterlimit="10" stroke-linecap="round" stroke-linejoin="round"/>
<path d="M260.188 172.502L339.028 93.6954L413.549 168.184L334.709 246.991L260.188 172.502Z" fill="#DADADA" stroke="black" stroke-width="3" stroke-miterlimit="10" stroke-linecap="round" stroke-linejoin="round"/>
<path d="M260.186 172.5L284.215 148.481L358.736 222.97L334.707 246.989L260.186 172.5Z" fill="#565656" stroke="black" stroke-width="3" stroke-miterlimit="10" stroke-linecap="round" stroke-linejoin="round"/>
<path d="M320.265 153.932L374.938 99.4143L339.015 93.7154L284.205 148.508L320.265 153.932Z" fill="#DADADA" stroke="black" stroke-width="3" stroke-miterlimit="10" stroke-linecap="round" stroke-linejoin="round"/>
<path d="M375.138 65.8405C375.138 65.8405 362.002 74.517 358.954 79.9156" stroke="black" stroke-width="3" stroke-miterlimit="10" stroke-linecap="round" stroke-linejoin="round"/>
<path d="M325.391 82.9746C325.391 82.9746 327.55 90.744 327.97 93.7154" stroke="black" stroke-width="3" stroke-miterlimit="10" stroke-linecap="round" stroke-linejoin="round"/>
<path d="M269.304 37.2211C269.304 37.2211 289.569 55.6064 293.242 62.5563" stroke="black" stroke-width="3" stroke-miterlimit="10" stroke-linecap="round" stroke-linejoin="round"/>
<path d="M235.786 99.7092L262.584 57.9498L297.15 80.1123L270.352 121.872L235.786 99.7092Z" fill="#DADADA" stroke="black" stroke-width="3" stroke-miterlimit="10" stroke-linecap="round" stroke-linejoin="round"/>
<path d="M247.016 95.7842L262.91 71.016L276.242 79.5642L260.348 104.332L247.016 95.7842Z" fill="white" stroke="black" stroke-width="3" stroke-miterlimit="10" stroke-linecap="round" stroke-linejoin="round"/>
<path d="M282.065 83.3312L275.243 93.9657" stroke="black" stroke-width="3" stroke-miterlimit="10" stroke-linecap="round" stroke-linejoin="round"/>
<path d="M286.014 85.8647L280.588 94.3286" stroke="black" stroke-width="3" stroke-miterlimit="10" stroke-linecap="round" stroke-linejoin="round"/>
<path d="M228.819 12.3551C228.819 12.3551 245.366 2.85288 251.587 9.07095C257.808 15.289 231.817 28.3632 237.037 33.5866C242.256 38.8038 264.173 22.9146 266.563 16.5777" stroke="black" stroke-width="3" stroke-miterlimit="10" stroke-linecap="round" stroke-linejoin="round"/>
<path d="M232.455 2.27106L259.447 29.2452" stroke="black" stroke-width="3" stroke-miterlimit="10" stroke-linecap="round" stroke-linejoin="round"/>
<path d="M227.411 4.72952L256.982 34.2872" stroke="black" stroke-width="3" stroke-miterlimit="10" stroke-linecap="round" stroke-linejoin="round"/>
<path d="M217.454 246.527L138.712 294.326L125.751 388.286" stroke="white" stroke-miterlimit="10"/>
</svg>
